<?xml version="1.0" standalone="no"?>
<!DOCTYPE svg PUBLIC "-//W3C//DTD SVG 20010904//EN"
 "http://www.w3.org/TR/2001/REC-SVG-20010904/DTD/svg10.dtd">
<svg version="1.0" xmlns="http://www.w3.org/2000/svg"
 width="512.000000pt" height="512.000000pt" viewBox="0 0 512.000000 512.000000"
 preserveAspectRatio="xMidYMid meet">

<g transform="translate(0.000000,512.000000) scale(0.100000,-0.100000)"
fill="#000000" stroke="none">
<path d="M2345 4934 c-820 -68 -1538 -467 -1950 -1084 -208 -311 -325 -693
-325 -1060 0 -990 798 -1863 1908 -2089 234 -48 316 -56 592 -55 346 0 554 31
859 130 l135 43 459 -276 c252 -151 474 -281 493 -289 48 -20 128 -18 173 5
48 25 95 79 111 127 24 72 9 120 -178 565 l-179 427 72 80 c302 335 479 718
524 1134 105 965 -564 1878 -1623 2217 -264 84 -496 121 -801 125 -121 2 -242
2 -270 0z m535 -450 c253 -33 491 -103 715 -213 538 -264 898 -701 1002 -1218
27 -133 24 -414 -5 -550 -29 -135 -72 -255 -139 -385 -79 -155 -159 -263 -320
-429 -201 -208 -201 -207 -74 -508 44 -107 80 -195 78 -197 -1 -1 -108 61
-237 138 -301 179 -294 178 -461 116 -321 -119 -552 -162 -874 -161 -285 0
-513 35 -764 119 -678 226 -1157 725 -1278 1331 -24 123 -24 403 0 526 157
785 915 1374 1859 1447 137 10 343 4 498 -16z"/>
<path d="M2432 3042 c-74 -27 -122 -69 -159 -141 -28 -53 -33 -74 -33 -130 0
-154 112 -277 265 -288 158 -13 291 105 302 266 15 205 -185 361 -375 293z"/>
<path d="M1492 3031 c-33 -12 -70 -35 -97 -61 -181 -178 -61 -484 190 -483
257 0 375 316 183 488 -81 72 -174 91 -276 56z"/>
<path d="M3367 3036 c-94 -35 -164 -110 -188 -201 -17 -60 -5 -146 27 -205 50
-92 137 -143 244 -143 78 -1 141 24 193 77 62 62 82 110 82 201 0 70 -4 87
-30 133 -32 59 -67 92 -129 124 -51 26 -148 33 -199 14z"/>
</g>
</svg>
