<svg width="150" height="22" viewBox="0 0 150 22" fill="none" xmlns="http://www.w3.org/2000/svg">
<path d="M13.0742 14.3965H17.1621C17.0801 15.7363 16.7109 16.9258 16.0547 17.9648C15.4076 19.0039 14.5007 19.8151 13.334 20.3984C12.1764 20.9818 10.7819 21.2734 9.15039 21.2734C7.87435 21.2734 6.73047 21.0547 5.71875 20.6172C4.70703 20.1706 3.84115 19.5326 3.12109 18.7031C2.41016 17.8737 1.86784 16.8711 1.49414 15.6953C1.12044 14.5195 0.933594 13.2025 0.933594 11.7441V10.3633C0.933594 8.90495 1.125 7.58789 1.50781 6.41211C1.89974 5.22721 2.45573 4.22005 3.17578 3.39062C3.90495 2.5612 4.77539 1.92318 5.78711 1.47656C6.79883 1.02995 7.92904 0.806641 9.17773 0.806641C10.8366 0.806641 12.2357 1.10742 13.375 1.70898C14.5234 2.31055 15.4121 3.13997 16.041 4.19727C16.679 5.25456 17.0618 6.45768 17.1895 7.80664H13.0879C13.0423 7.00456 12.8828 6.32552 12.6094 5.76953C12.3359 5.20443 11.9212 4.7806 11.3652 4.49805C10.8184 4.20638 10.0892 4.06055 9.17773 4.06055C8.49414 4.06055 7.89714 4.18815 7.38672 4.44336C6.8763 4.69857 6.44792 5.08594 6.10156 5.60547C5.75521 6.125 5.49544 6.78125 5.32227 7.57422C5.1582 8.35807 5.07617 9.27865 5.07617 10.3359V11.7441C5.07617 12.7741 5.15365 13.681 5.30859 14.4648C5.46354 15.2396 5.70052 15.8958 6.01953 16.4336C6.34766 16.9622 6.76693 17.3633 7.27734 17.6367C7.79688 17.901 8.42122 18.0332 9.15039 18.0332C10.0072 18.0332 10.7135 17.8965 11.2695 17.623C11.8255 17.3496 12.2493 16.944 12.541 16.4062C12.8418 15.8685 13.0195 15.1986 13.0742 14.3965ZM18.9805 13.7539V13.4668C18.9805 12.3822 19.1354 11.3841 19.4453 10.4727C19.7552 9.55208 20.2064 8.75456 20.7988 8.08008C21.3913 7.4056 22.1204 6.88151 22.9863 6.50781C23.8522 6.125 24.8457 5.93359 25.9668 5.93359C27.0879 5.93359 28.0859 6.125 28.9609 6.50781C29.8359 6.88151 30.5697 7.4056 31.1621 8.08008C31.7637 8.75456 32.2194 9.55208 32.5293 10.4727C32.8392 11.3841 32.9941 12.3822 32.9941 13.4668V13.7539C32.9941 14.8294 32.8392 15.8275 32.5293 16.748C32.2194 17.6595 31.7637 18.457 31.1621 19.1406C30.5697 19.8151 29.8405 20.3392 28.9746 20.7129C28.1087 21.0866 27.1152 21.2734 25.9941 21.2734C24.873 21.2734 23.875 21.0866 23 20.7129C22.1341 20.3392 21.4004 19.8151 20.7988 19.1406C20.2064 18.457 19.7552 17.6595 19.4453 16.748C19.1354 15.8275 18.9805 14.8294 18.9805 13.7539ZM22.918 13.4668V13.7539C22.918 14.3737 22.9727 14.9525 23.082 15.4902C23.1914 16.028 23.3646 16.502 23.6016 16.9121C23.8477 17.3132 24.1667 17.6276 24.5586 17.8555C24.9505 18.0833 25.429 18.1973 25.9941 18.1973C26.541 18.1973 27.0104 18.0833 27.4023 17.8555C27.7943 17.6276 28.1087 17.3132 28.3457 16.9121C28.5827 16.502 28.7559 16.028 28.8652 15.4902C28.9837 14.9525 29.043 14.3737 29.043 13.7539V13.4668C29.043 12.8652 28.9837 12.3001 28.8652 11.7715C28.7559 11.2337 28.5781 10.7598 28.332 10.3496C28.0951 9.93034 27.7806 9.60221 27.3887 9.36523C26.9967 9.12826 26.5228 9.00977 25.9668 9.00977C25.4108 9.00977 24.9368 9.12826 24.5449 9.36523C24.1621 9.60221 23.8477 9.93034 23.6016 10.3496C23.3646 10.7598 23.1914 11.2337 23.082 11.7715C22.9727 12.3001 22.918 12.8652 22.918 13.4668ZM39.2695 9.36523V21H35.332V6.20703H39.0234L39.2695 9.36523ZM38.6953 13.084H37.6289C37.6289 11.9902 37.7702 11.0059 38.0527 10.1309C38.3353 9.24674 38.7318 8.49479 39.2422 7.875C39.7526 7.24609 40.3587 6.76758 41.0605 6.43945C41.7715 6.10221 42.5645 5.93359 43.4395 5.93359C44.1322 5.93359 44.7656 6.03385 45.3398 6.23438C45.9141 6.4349 46.4062 6.75391 46.8164 7.19141C47.2357 7.62891 47.5547 8.20768 47.7734 8.92773C48.0013 9.64779 48.1152 10.5273 48.1152 11.5664V21H44.1504V11.5527C44.1504 10.8965 44.0592 10.3861 43.877 10.0215C43.6947 9.6569 43.4258 9.40169 43.0703 9.25586C42.724 9.10091 42.2956 9.02344 41.7852 9.02344C41.2565 9.02344 40.7962 9.12826 40.4043 9.33789C40.0215 9.54753 39.7025 9.83919 39.4473 10.2129C39.2012 10.5775 39.0143 11.0059 38.8867 11.498C38.7591 11.9902 38.6953 12.5189 38.6953 13.084ZM57.918 21.2734C56.7695 21.2734 55.7396 21.0911 54.8281 20.7266C53.9167 20.3529 53.1419 19.8379 52.5039 19.1816C51.875 18.5254 51.3919 17.7643 51.0547 16.8984C50.7174 16.0234 50.5488 15.0938 50.5488 14.1094V13.5625C50.5488 12.4414 50.7083 11.416 51.0273 10.4863C51.3464 9.55664 51.8021 8.75 52.3945 8.06641C52.9961 7.38281 53.7253 6.85872 54.582 6.49414C55.4388 6.12044 56.4049 5.93359 57.4805 5.93359C58.5286 5.93359 59.4583 6.10677 60.2695 6.45312C61.0807 6.79948 61.7598 7.29167 62.3066 7.92969C62.8626 8.56771 63.2819 9.33333 63.5645 10.2266C63.847 11.1107 63.9883 12.0951 63.9883 13.1797V14.8203H52.2305V12.1953H60.1191V11.8945C60.1191 11.3477 60.0189 10.86 59.8184 10.4316C59.627 9.99414 59.3353 9.64779 58.9434 9.39258C58.5514 9.13737 58.0501 9.00977 57.4395 9.00977C56.9199 9.00977 56.4733 9.1237 56.0996 9.35156C55.7259 9.57943 55.4206 9.89844 55.1836 10.3086C54.9557 10.7188 54.7826 11.2018 54.6641 11.7578C54.5547 12.3047 54.5 12.9062 54.5 13.5625V14.1094C54.5 14.7018 54.582 15.2487 54.7461 15.75C54.9193 16.2513 55.1608 16.6842 55.4707 17.0488C55.7897 17.4134 56.1725 17.696 56.6191 17.8965C57.0749 18.097 57.5898 18.1973 58.1641 18.1973C58.875 18.1973 59.5358 18.0605 60.1465 17.7871C60.7663 17.5046 61.2995 17.0807 61.7461 16.5156L63.6602 18.5938C63.3503 19.0404 62.9264 19.4688 62.3887 19.8789C61.86 20.2891 61.222 20.6263 60.4746 20.8906C59.7272 21.1458 58.875 21.2734 57.918 21.2734ZM72.3418 18.1973C72.8249 18.1973 73.2533 18.1061 73.627 17.9238C74.0007 17.7324 74.2923 17.4681 74.502 17.1309C74.7207 16.7845 74.8346 16.3789 74.8438 15.9141H78.5488C78.5397 16.9531 78.2617 17.8783 77.7148 18.6895C77.168 19.4915 76.4342 20.125 75.5137 20.5898C74.5931 21.0456 73.5632 21.2734 72.4238 21.2734C71.2754 21.2734 70.2728 21.082 69.416 20.6992C68.5684 20.3164 67.862 19.7878 67.2969 19.1133C66.7318 18.4297 66.3079 17.6367 66.0254 16.7344C65.7428 15.8229 65.6016 14.8477 65.6016 13.8086V13.4121C65.6016 12.3639 65.7428 11.3887 66.0254 10.4863C66.3079 9.57487 66.7318 8.7819 67.2969 8.10742C67.862 7.42383 68.5684 6.89062 69.416 6.50781C70.2637 6.125 71.2572 5.93359 72.3965 5.93359C73.6087 5.93359 74.6706 6.16602 75.582 6.63086C76.5026 7.0957 77.2227 7.76107 77.7422 8.62695C78.2708 9.48372 78.5397 10.5 78.5488 11.6758H74.8438C74.8346 11.1836 74.7298 10.737 74.5293 10.3359C74.3379 9.9349 74.0553 9.61589 73.6816 9.37891C73.3171 9.13281 72.8659 9.00977 72.3281 9.00977C71.7539 9.00977 71.2845 9.13281 70.9199 9.37891C70.5553 9.61589 70.2728 9.94401 70.0723 10.3633C69.8717 10.7734 69.7305 11.2428 69.6484 11.7715C69.5755 12.291 69.5391 12.8379 69.5391 13.4121V13.8086C69.5391 14.3828 69.5755 14.9342 69.6484 15.4629C69.7214 15.9915 69.8581 16.4609 70.0586 16.8711C70.2682 17.2812 70.5553 17.6048 70.9199 17.8418C71.2845 18.0788 71.7585 18.1973 72.3418 18.1973ZM88.0781 6.20703V8.99609H79.4648V6.20703H88.0781ZM81.5977 2.55664H85.5352V16.543C85.5352 16.9714 85.5898 17.2995 85.6992 17.5273C85.8177 17.7552 85.9909 17.9147 86.2188 18.0059C86.4466 18.0879 86.7337 18.1289 87.0801 18.1289C87.3262 18.1289 87.5449 18.1198 87.7363 18.1016C87.9368 18.0742 88.1055 18.0469 88.2422 18.0195L88.2559 20.918C87.9186 21.0273 87.554 21.1139 87.1621 21.1777C86.7702 21.2415 86.3372 21.2734 85.8633 21.2734C84.9974 21.2734 84.2409 21.1322 83.5938 20.8496C82.9557 20.5579 82.4635 20.0931 82.1172 19.4551C81.7708 18.8171 81.5977 17.9785 81.5977 16.9395V2.55664ZM94.668 1.09375V21H90.5664V1.09375H94.668ZM102.598 9.59766V12.7969H93.5469V9.59766H102.598ZM103.555 1.09375V4.30664H93.5469V1.09375H103.555ZM104.758 13.7539V13.4668C104.758 12.3822 104.913 11.3841 105.223 10.4727C105.533 9.55208 105.984 8.75456 106.576 8.08008C107.169 7.4056 107.898 6.88151 108.764 6.50781C109.63 6.125 110.623 5.93359 111.744 5.93359C112.865 5.93359 113.863 6.125 114.738 6.50781C115.613 6.88151 116.347 7.4056 116.939 8.08008C117.541 8.75456 117.997 9.55208 118.307 10.4727C118.617 11.3841 118.771 12.3822 118.771 13.4668V13.7539C118.771 14.8294 118.617 15.8275 118.307 16.748C117.997 17.6595 117.541 18.457 116.939 19.1406C116.347 19.8151 115.618 20.3392 114.752 20.7129C113.886 21.0866 112.893 21.2734 111.771 21.2734C110.65 21.2734 109.652 21.0866 108.777 20.7129C107.911 20.3392 107.178 19.8151 106.576 19.1406C105.984 18.457 105.533 17.6595 105.223 16.748C104.913 15.8275 104.758 14.8294 104.758 13.7539ZM108.695 13.4668V13.7539C108.695 14.3737 108.75 14.9525 108.859 15.4902C108.969 16.028 109.142 16.502 109.379 16.9121C109.625 17.3132 109.944 17.6276 110.336 17.8555C110.728 18.0833 111.206 18.1973 111.771 18.1973C112.318 18.1973 112.788 18.0833 113.18 17.8555C113.572 17.6276 113.886 17.3132 114.123 16.9121C114.36 16.502 114.533 16.028 114.643 15.4902C114.761 14.9525 114.82 14.3737 114.82 13.7539V13.4668C114.82 12.8652 114.761 12.3001 114.643 11.7715C114.533 11.2337 114.355 10.7598 114.109 10.3496C113.872 9.93034 113.558 9.60221 113.166 9.36523C112.774 9.12826 112.3 9.00977 111.744 9.00977C111.188 9.00977 110.714 9.12826 110.322 9.36523C109.939 9.60221 109.625 9.93034 109.379 10.3496C109.142 10.7598 108.969 11.2337 108.859 11.7715C108.75 12.3001 108.695 12.8652 108.695 13.4668ZM120.562 13.7539V13.4668C120.562 12.3822 120.717 11.3841 121.027 10.4727C121.337 9.55208 121.788 8.75456 122.381 8.08008C122.973 7.4056 123.702 6.88151 124.568 6.50781C125.434 6.125 126.428 5.93359 127.549 5.93359C128.67 5.93359 129.668 6.125 130.543 6.50781C131.418 6.88151 132.152 7.4056 132.744 8.08008C133.346 8.75456 133.801 9.55208 134.111 10.4727C134.421 11.3841 134.576 12.3822 134.576 13.4668V13.7539C134.576 14.8294 134.421 15.8275 134.111 16.748C133.801 17.6595 133.346 18.457 132.744 19.1406C132.152 19.8151 131.423 20.3392 130.557 20.7129C129.691 21.0866 128.697 21.2734 127.576 21.2734C126.455 21.2734 125.457 21.0866 124.582 20.7129C123.716 20.3392 122.982 19.8151 122.381 19.1406C121.788 18.457 121.337 17.6595 121.027 16.748C120.717 15.8275 120.562 14.8294 120.562 13.7539ZM124.5 13.4668V13.7539C124.5 14.3737 124.555 14.9525 124.664 15.4902C124.773 16.028 124.947 16.502 125.184 16.9121C125.43 17.3132 125.749 17.6276 126.141 17.8555C126.533 18.0833 127.011 18.1973 127.576 18.1973C128.123 18.1973 128.592 18.0833 128.984 17.8555C129.376 17.6276 129.691 17.3132 129.928 16.9121C130.165 16.502 130.338 16.028 130.447 15.4902C130.566 14.9525 130.625 14.3737 130.625 13.7539V13.4668C130.625 12.8652 130.566 12.3001 130.447 11.7715C130.338 11.2337 130.16 10.7598 129.914 10.3496C129.677 9.93034 129.363 9.60221 128.971 9.36523C128.579 9.12826 128.105 9.00977 127.549 9.00977C126.993 9.00977 126.519 9.12826 126.127 9.36523C125.744 9.60221 125.43 9.93034 125.184 10.3496C124.947 10.7598 124.773 11.2337 124.664 11.7715C124.555 12.3001 124.5 12.8652 124.5 13.4668ZM145.732 17.7734V0H149.697V21H146.129L145.732 17.7734ZM136.381 13.7812V13.4941C136.381 12.3639 136.508 11.3385 136.764 10.418C137.019 9.48828 137.393 8.69076 137.885 8.02539C138.377 7.36003 138.983 6.84505 139.703 6.48047C140.423 6.11589 141.243 5.93359 142.164 5.93359C143.03 5.93359 143.786 6.11589 144.434 6.48047C145.09 6.84505 145.646 7.36458 146.102 8.03906C146.566 8.70443 146.94 9.49284 147.223 10.4043C147.505 11.3066 147.71 12.2956 147.838 13.3711V14C147.71 15.0299 147.505 15.987 147.223 16.8711C146.94 17.7552 146.566 18.5299 146.102 19.1953C145.646 19.8516 145.09 20.362 144.434 20.7266C143.777 21.0911 143.012 21.2734 142.137 21.2734C141.216 21.2734 140.396 21.0866 139.676 20.7129C138.965 20.3392 138.363 19.8151 137.871 19.1406C137.388 18.4661 137.019 17.6732 136.764 16.7617C136.508 15.8503 136.381 14.8568 136.381 13.7812ZM140.318 13.4941V13.7812C140.318 14.3919 140.364 14.9616 140.455 15.4902C140.555 16.0189 140.715 16.4883 140.934 16.8984C141.161 17.2995 141.453 17.6139 141.809 17.8418C142.173 18.0605 142.615 18.1699 143.135 18.1699C143.809 18.1699 144.365 18.0195 144.803 17.7188C145.24 17.4089 145.573 16.985 145.801 16.4473C146.038 15.9095 146.174 15.2897 146.211 14.5879V12.7969C146.184 12.2227 146.102 11.7077 145.965 11.252C145.837 10.7871 145.646 10.3906 145.391 10.0625C145.145 9.73438 144.835 9.47917 144.461 9.29688C144.096 9.11458 143.663 9.02344 143.162 9.02344C142.652 9.02344 142.214 9.14193 141.85 9.37891C141.485 9.60677 141.189 9.92122 140.961 10.3223C140.742 10.7233 140.578 11.1973 140.469 11.7441C140.368 12.2819 140.318 12.8652 140.318 13.4941Z" fill="white"/>
</svg>
