<?xml version="1.0" standalone="no"?>
<!DOCTYPE svg PUBLIC "-//W3C//DTD SVG 20010904//EN"
 "http://www.w3.org/TR/2001/REC-SVG-20010904/DTD/svg10.dtd">
<svg version="1.0" xmlns="http://www.w3.org/2000/svg"
 width="267.000000pt" height="189.000000pt" viewBox="0 0 267.000000 189.000000"
 preserveAspectRatio="xMidYMid meet">

<g transform="translate(0.000000,189.000000) scale(0.100000,-0.100000)"
fill="#000000" stroke="none">
<path d="M245 1880 c-3 -5 4 -6 15 -3 14 4 20 0 20 -11 0 -9 -5 -16 -12 -16
-6 0 -9 -2 -6 -5 3 -3 17 -1 32 5 15 5 25 6 22 1 -11 -18 33 -18 61 0 32 22
31 23 -17 9 -33 -9 -34 -8 -15 6 19 15 19 15 -10 9 -17 -4 -25 -3 -18 2 7 5
-3 9 -28 9 -22 1 -42 -2 -44 -6z"/>
<path d="M2219 1886 c0 0 -2 -9 -4 -19 -3 -14 0 -16 10 -7 8 7 16 7 19 2 6
-10 -21 -27 -36 -24 -15 3 -8 -29 9 -46 16 -16 16 -16 11 6 -3 12 -2 20 3 16
14 -8 11 -34 -6 -51 -13 -12 -13 -18 -3 -31 8 -9 8 -13 2 -9 -7 4 -15 0 -18
-9 -3 -8 -10 -13 -15 -10 -16 10 -43 -5 -32 -18 7 -8 4 -12 -10 -12 -23 0 -22
-2 -5 40 13 32 13 33 -5 29 -10 -3 -19 -10 -19 -15 0 -5 -5 -6 -12 -2 -8 5 -9
2 -5 -9 3 -10 2 -18 -3 -18 -6 -1 -16 -2 -22 -3 -7 0 -14 -11 -16 -23 -2 -13
-8 -23 -13 -23 -6 0 -7 -5 -3 -12 5 -7 3 -8 -6 -3 -10 6 -12 4 -7 -8 6 -16 13
-60 21 -133 2 -17 6 -36 10 -43 8 -13 26 -6 26 10 0 6 -4 7 -10 4 -11 -7 -11
-9 -14 63 -2 35 1 52 10 52 8 0 10 -10 4 -35 -6 -25 -4 -38 6 -46 8 -6 14 -18
14 -25 0 -8 7 -14 16 -14 16 0 12 12 -14 43 -14 15 -13 17 1 17 10 0 17 -4 17
-10 0 -5 6 -10 13 -10 9 0 12 -10 9 -30 -2 -17 0 -30 6 -30 18 0 25 22 11 31
-10 6 -7 9 11 9 15 0 31 -5 38 -12 8 -8 12 -8 12 -1 0 6 11 10 25 9 17 -1 25
-7 25 -19 0 -17 1 -17 16 -3 17 18 39 22 29 6 -3 -5 -4 -10 -2 -10 8 0 43 36
60 62 15 24 20 26 43 18 14 -6 30 -8 35 -4 11 6 11 -4 -1 -31 -5 -11 -9 -15
-9 -9 -1 16 -27 25 -29 11 0 -7 -5 -29 -10 -49 -10 -40 2 -54 13 -17 6 16 9
18 15 8 5 -7 7 -16 4 -20 -2 -4 5 -5 16 -2 11 3 20 12 20 20 0 13 -3 13 -15 3
-13 -11 -14 -10 -9 4 4 10 12 15 19 12 6 -2 18 0 26 5 8 5 9 9 3 9 -7 0 -14
11 -16 24 -4 17 -1 23 9 19 7 -3 13 -9 13 -14 0 -5 8 -9 18 -9 13 0 14 2 4 9
-11 6 -10 10 4 15 16 6 16 8 4 16 -13 8 -12 10 3 10 12 0 17 6 15 18 -3 12
-13 17 -36 16 -27 -2 -30 1 -22 15 5 10 16 23 24 30 13 11 15 9 11 -9 -3 -16
0 -20 11 -16 9 3 18 6 20 6 2 0 4 8 4 18 1 16 2 15 15 -2 11 -15 12 -23 3 -40
-7 -11 -11 -27 -10 -33 2 -7 -2 -13 -8 -13 -7 0 -9 -8 -5 -19 4 -13 -2 -25
-21 -40 -37 -29 -10 -27 29 3 22 16 38 21 51 17 14 -5 16 -10 8 -15 -7 -4 -12
-13 -12 -19 0 -7 4 -6 10 3 6 10 10 11 10 3 0 -7 7 -13 15 -13 8 0 15 -6 15
-13 0 -7 -9 -13 -19 -13 -11 0 -17 5 -13 11 3 5 -1 4 -10 -3 -13 -10 -17 -10
-21 0 -3 8 -9 3 -15 -12 -6 -15 -19 -26 -31 -27 -12 -1 -19 2 -16 8 7 11 -52
6 -63 -6 -4 -5 -2 -5 5 -2 16 10 28 -50 14 -67 -9 -11 -6 -15 14 -20 14 -4 23
-11 20 -16 -3 -6 -1 -10 6 -10 7 0 9 -3 6 -6 -4 -4 -13 -1 -21 5 -13 11 -14 9
-10 -13 3 -21 0 -26 -15 -26 -11 0 -23 -5 -27 -12 -4 -6 -3 -8 3 -5 6 4 14 0
17 -8 4 -10 -2 -19 -17 -25 -12 -5 -15 -9 -7 -9 10 -1 11 -4 2 -13 -8 -8 -15
-8 -26 1 -8 7 -20 10 -26 6 -13 -8 -13 -95 1 -95 5 0 7 5 3 12 -4 6 -3 8 4 4
6 -3 13 -2 17 4 3 5 1 10 -5 10 -6 0 -9 4 -6 9 9 14 40 19 61 9 18 -8 18 -8
-2 -4 -26 5 -31 -9 -7 -18 8 -3 12 -10 9 -16 -3 -5 -1 -10 4 -10 6 0 11 8 11
18 1 13 4 11 14 -7 8 -14 11 -32 8 -40 -5 -14 -3 -14 11 -2 15 12 17 10 17
-15 0 -16 -4 -24 -8 -18 -12 18 -50 35 -57 25 -7 -12 50 -53 59 -44 4 4 4 0 1
-8 -5 -12 2 -18 26 -23 l31 -6 -4 -84 c-4 -75 -2 -85 14 -89 14 -4 18 -16 19
-54 1 -26 3 -60 5 -75 1 -16 -2 -28 -8 -28 -7 0 -7 -4 0 -13 7 -8 7 -17 -1
-27 -15 -18 -39 -19 -50 -2 -14 22 -37 14 -37 -14 0 -34 -17 -64 -36 -64 -14
0 -16 17 -12 138 l4 137 -99 38 c-103 39 -126 54 -119 75 2 6 -1 12 -7 12 -6
0 -11 -7 -11 -15 0 -8 -4 -15 -10 -15 -5 0 -10 5 -10 11 0 5 -4 8 -8 5 -4 -2
-14 -1 -22 5 -12 7 -11 9 5 10 11 1 24 0 30 -1 18 -3 -1 10 -46 33 -36 18 -44
27 -45 52 -2 48 -3 50 -18 30 -13 -18 -13 -17 -12 6 1 27 -14 50 -29 41 -5 -2
-5 0 1 7 7 8 8 33 2 79 -5 37 -9 76 -10 87 -1 11 -5 25 -9 30 -4 6 -10 29 -14
53 -4 23 -11 39 -17 36 -5 -3 -12 3 -15 15 -7 27 -19 27 -33 0 -10 -17 -8 -21
9 -26 14 -3 21 -13 21 -28 0 -12 3 -36 6 -53 5 -27 4 -31 -14 -29 -11 0 -19 4
-16 8 2 4 1 20 -2 37 -6 28 -7 29 -23 13 -10 -10 -21 -26 -26 -37 -7 -16 -9
-14 -15 16 -4 19 -8 27 -9 18 0 -10 -5 -18 -11 -18 -5 0 -10 -18 -10 -41 0
-36 3 -41 30 -50 17 -6 30 -15 30 -20 0 -5 7 -9 15 -9 8 0 15 -4 15 -10 0 -5
10 -10 22 -10 12 0 32 -10 45 -22 21 -20 22 -23 7 -39 -9 -10 -14 -26 -10 -35
5 -14 9 -14 23 -3 15 13 15 12 2 -11 -8 -14 -18 -28 -23 -31 -5 -4 -7 -21 -4
-38 2 -17 0 -33 -6 -35 -6 -2 -5 -5 2 -5 20 -1 43 25 36 42 -3 8 -1 18 5 21 5
3 12 -7 16 -23 3 -16 13 -32 21 -35 8 -3 14 -10 14 -16 0 -18 -77 -11 -137 12
-32 12 -60 22 -63 23 -32 4 -170 63 -170 72 0 7 -4 13 -10 13 -5 0 -10 -4 -10
-9 0 -4 -26 -11 -57 -15 -32 -3 -222 -23 -423 -45 -201 -22 -565 -61 -810 -86
-245 -25 -450 -48 -456 -50 -6 -2 -9 -17 -6 -34 4 -31 15 -40 27 -21 3 6 12
10 18 10 7 0 6 -4 -3 -11 -11 -8 -8 -9 15 -3 17 3 46 6 65 5 67 -4 546 26 717
44 l43 5 0 -40 c0 -21 5 -42 10 -45 13 -8 13 -48 -1 -62 -13 -13 -15 -91 -2
-104 5 -5 8 -23 5 -39 -4 -28 -7 -30 -48 -30 -28 0 -44 4 -44 13 0 8 -2 9 -8
1 -4 -6 -20 -11 -37 -10 -30 1 -30 2 -27 51 2 28 9 55 16 60 7 6 15 34 18 63
l5 53 -131 -6 c-316 -12 -372 -17 -431 -37 -33 -11 -64 -24 -70 -29 -16 -16
15 -29 67 -29 l47 0 -25 -60 c-19 -48 -22 -65 -14 -83 9 -18 9 -20 -2 -7 -7 8
-22 16 -33 17 -11 1 -57 5 -103 9 l-82 7 0 -122 0 -121 134 0 134 0 5 -27 c3
-16 3 -31 0 -35 -2 -5 -42 -8 -89 -8 -68 0 -84 -3 -84 -15 0 -10 -10 -15 -27
-15 -69 0 -73 -5 -73 -91 l0 -79 487 4 c269 2 497 5 508 5 11 1 94 -1 185 -4
l165 -5 -65 20 c-36 12 -83 25 -105 29 l-40 9 40 1 c52 1 116 -10 110 -19 -2
-4 7 -5 21 -2 18 3 30 -1 40 -17 8 -11 25 -20 37 -20 20 1 20 2 2 6 -34 8 -44
26 -10 19 17 -3 54 -11 83 -16 30 -7 115 -9 200 -6 81 2 156 4 167 4 308 -5
840 -4 810 2 -22 4 -85 7 -140 5 -73 -2 -85 -1 -45 4 l55 7 -55 6 c-30 3 -5 4
55 3 61 -2 122 -6 138 -10 l27 -7 0 535 0 535 -30 4 c-22 3 -29 1 -26 -8 3 -7
-4 -23 -14 -36 -11 -13 -19 -17 -20 -10 0 6 4 12 8 12 5 0 9 7 9 15 0 11 -4
12 -14 4 -10 -9 -13 -8 -13 4 0 8 -3 23 -7 33 -4 11 -3 15 4 11 16 -10 45 40
38 63 -4 12 -2 20 5 20 6 0 8 -5 4 -12 -5 -7 -3 -8 5 -4 7 5 10 14 7 22 -3 8
-2 13 2 13 44 -7 42 -20 41 336 l-1 335 -43 0 c-31 0 -47 -5 -54 -17 -10 -17
-10 -17 -11 0 0 16 -14 17 -170 16 -93 -1 -170 -2 -171 -3z m301 -10 c0 -11
-19 -15 -25 -6 -3 5 1 10 9 10 9 0 16 -2 16 -4z m-236 -15 c3 -5 0 -14 -7 -19
-10 -8 -13 -6 -14 9 -2 19 11 26 21 10z m251 -40 c-19 -20 -25 -12 -13 19 7
20 11 22 18 10 6 -10 4 -20 -5 -29z m-40 19 c-3 -5 -12 -10 -18 -10 -7 0 -6 4
3 10 19 12 23 12 15 0z m-210 -30 c-3 -5 -11 -10 -16 -10 -6 0 -7 5 -4 10 3 6
11 10 16 10 6 0 7 -4 4 -10z m275 -4 c0 -2 -8 -10 -17 -17 -16 -13 -17 -12 -4
4 13 16 21 21 21 13z m-110 -20 c0 -2 -8 -10 -17 -17 -16 -13 -17 -12 -4 4 13
16 21 21 21 13z m176 -18 c-12 -20 -46 -25 -46 -7 0 6 7 8 16 5 11 -4 15 -2
11 7 -3 7 3 13 13 13 14 0 15 -4 6 -18z m-97 -15 c10 -19 8 -24 -10 -33 -15
-9 -24 -8 -37 2 -9 7 -13 8 -9 2 3 -6 0 -11 -9 -11 -9 0 -12 7 -8 19 3 10 0
18 -6 18 -6 0 -8 5 -5 10 3 6 11 10 16 10 6 0 8 -4 5 -8 -2 -4 5 -14 17 -21
12 -8 19 -10 15 -6 -4 4 -3 16 3 27 12 22 12 22 28 -9z m-105 -18 c3 -8 1 -15
-4 -15 -6 0 -10 7 -10 15 0 8 2 15 4 15 2 0 6 -7 10 -15z m-101 -12 c8 21 33
22 41 1 4 -10 2 -13 -7 -9 -6 4 -3 -1 7 -9 13 -10 15 -16 7 -16 -8 0 -20 -8
-27 -17 -12 -16 -12 -15 -7 7 6 23 5 24 -12 10 -11 -9 -16 -10 -11 -2 4 7 2
12 -7 12 -11 0 -13 7 -9 22 5 20 6 20 12 3 6 -17 7 -17 13 -2z m277 9 c0 -5
-7 -9 -15 -9 -8 0 -12 4 -9 9 3 4 9 8 15 8 5 0 9 -4 9 -8z m-97 -39 c-7 -2
-21 -2 -30 0 -10 3 -4 5 12 5 17 0 24 -2 18 -5z m25 -28 c-2 -23 -18 -37 -18
-15 0 6 -7 10 -15 10 -8 0 -15 -5 -15 -11 0 -5 5 -7 12 -3 7 5 8 3 3 -5 -11
-18 -29 3 -21 24 4 11 13 15 26 12 11 -3 20 -1 20 4 0 5 2 9 5 9 3 0 4 -11 3
-25z m-418 -31 c0 -8 -19 -13 -24 -6 -3 5 1 9 9 9 8 0 15 -2 15 -3z m224 -35
c-9 -11 -20 -17 -23 -13 -3 3 2 10 12 15 9 6 14 15 11 21 -5 7 -2 8 5 4 9 -6
8 -13 -5 -27z m272 17 c16 -17 18 -26 4 -26 -5 0 -14 9 -20 20 -12 23 -5 26
16 6z m-342 -7 c2 -2 -2 -9 -9 -16 -10 -9 -14 -8 -18 6 -4 17 14 24 27 10z
m-94 -28 c0 -5 9 -11 20 -14 20 -5 28 -36 10 -38 -5 -1 -16 -2 -22 -3 -7 -1
-16 5 -20 14 -10 23 -9 50 2 50 6 0 10 -4 10 -9z m270 -10 c0 -9 -41 -23 -49
-16 -3 4 28 20 47 24 1 1 2 -3 2 -8z m154 -49 c-6 -14 -8 -13 -14 8 -4 14 -2
31 4 39 9 12 12 10 14 -8 2 -12 0 -30 -4 -39z m-371 -15 c3 -8 -3 -13 -14 -13
-22 0 -25 12 -6 19 6 3 13 6 13 6 1 1 4 -5 7 -12z m312 -146 c-3 -6 -11 -11
-17 -11 -6 0 -6 6 2 15 14 17 26 13 15 -4z m70 -10 c3 -5 2 -12 -3 -15 -5 -3
-9 1 -9 9 0 17 3 19 12 6z m-678 -123 c-3 -7 -5 -2 -5 12 0 14 2 19 5 13 2 -7
2 -19 0 -25z m137 6 c3 -8 2 -12 -4 -9 -6 3 -10 10 -10 16 0 14 7 11 14 -7z
m-84 -22 c-6 -2 -8 -8 -5 -13 4 -5 -2 -6 -11 -2 -11 4 -13 8 -6 11 7 2 12 11
12 20 0 15 2 15 10 2 6 -10 6 -16 0 -18z m328 -506 c-7 -8 -15 -12 -17 -11 -5
6 10 25 20 25 5 0 4 -6 -3 -14z m104 -103 c4 -103 3 -113 -13 -118 -36 -12
-41 3 -34 89 4 44 12 84 19 88 10 7 12 12 15 47 3 42 9 -7 13 -106z m58 -10
c0 -65 -3 -83 -14 -83 -8 0 -17 -6 -19 -12 -3 -7 -6 41 -6 106 l-1 119 20 -23
c17 -19 20 -37 20 -107z m-220 50 c-9 -53 -9 -56 9 -71 9 -8 11 -11 4 -8 -6 4
-14 2 -17 -3 -3 -5 2 -12 11 -15 14 -6 15 -9 4 -15 -9 -6 -10 -11 -2 -15 16
-10 14 -57 -1 -50 -26 10 -48 74 -48 136 0 50 2 59 14 49 11 -9 15 -7 19 9 9
35 15 22 7 -17z m59 -8 c1 6 6 3 11 -5 8 -12 10 -12 11 5 2 40 17 -28 18 -82
1 -48 -1 -53 -23 -59 -14 -3 -27 -13 -29 -22 -3 -10 -5 35 -5 98 0 72 3 104 8
85 4 -16 8 -25 9 -20z m-330 -12 c0 -25 -1 -26 -9 -8 -12 27 -12 35 0 35 6 0
10 -12 9 -27z m-1271 -110 c-10 -2 -28 -2 -40 0 -13 2 -5 4 17 4 22 1 32 -1
23 -4z m717 -34 c2 -11 -5 -14 -26 -11 -20 3 -31 -1 -35 -12 -8 -21 -64 -22
-64 -1 0 8 9 19 19 24 16 9 18 8 14 -11 -9 -32 18 -18 36 19 14 28 18 30 35
19 11 -7 20 -19 21 -27z m-211 15 c20 -19 13 -34 -13 -27 -15 4 -19 -2 -23
-26 -3 -22 -1 -28 6 -21 16 16 24 12 24 -16 0 -17 -5 -24 -14 -20 -8 3 -14 0
-14 -6 0 -6 -3 -8 -7 -5 -3 4 -12 2 -20 -4 -7 -6 -13 -8 -13 -3 -1 5 -7 -4
-14 -21 l-13 -30 -8 39 -8 39 -13 -29 -12 -29 -1 28 c-1 17 -5 26 -12 22 -6
-4 -8 -14 -4 -22 4 -12 3 -13 -8 -5 -8 7 -17 9 -20 5 -4 -3 -7 5 -7 19 0 16
-8 29 -22 36 -19 9 -7 11 62 10 118 -1 113 -3 105 32 -11 48 16 67 49 34z m53
0 c-3 -4 0 -13 8 -21 19 -19 19 -33 0 -33 -8 0 -12 6 -9 14 3 8 0 17 -5 21
-11 6 -6 25 6 25 4 0 4 -3 0 -6z m-147 -24 l20 -20 -52 1 c-29 0 -46 3 -38 6
8 3 19 12 23 19 11 19 24 17 47 -6z m-786 -17 c34 -4 46 -2 46 8 0 10 3 10 12
1 21 -21 -11 -33 -72 -28 -36 3 -48 2 -35 -4 11 -5 38 -9 60 -10 l40 -1 -55
-24 -55 -23 -7 30 c-3 17 -14 35 -23 41 -15 8 -15 10 6 21 14 7 27 8 30 3 4
-5 27 -12 53 -14z m551 17 c3 -5 1 -10 -4 -10 -6 0 -11 5 -11 10 0 6 2 10 4
10 3 0 8 -4 11 -10z m-464 -23 c-10 -9 -11 -8 -5 6 3 10 9 15 12 12 3 -3 0
-11 -7 -18z m399 14 c0 -6 -9 -9 -20 -8 -11 1 -20 5 -20 9 0 4 9 8 20 8 11 0
20 -4 20 -9z m732 -23 c-7 -7 -12 -8 -12 -2 0 14 12 26 19 19 2 -3 -1 -11 -7
-17z m448 8 c-19 -18 -85 -33 -76 -17 4 6 16 11 27 11 10 0 19 5 19 10 0 6 10
10 22 10 19 0 20 -2 8 -14z m-1920 -11 c0 -8 -4 -15 -10 -15 -5 0 -10 7 -10
15 0 8 5 15 10 15 6 0 10 -7 10 -15z m1790 -5 c0 -11 -4 -20 -10 -20 -5 0 -10
9 -10 20 0 11 5 20 10 20 6 0 10 -9 10 -20z m-343 4 c-3 -3 -12 -4 -19 -1 -8
3 -5 6 6 6 11 1 17 -2 13 -5z m-1330 -10 c-3 -3 -12 -4 -19 -1 -8 3 -5 6 6 6
11 1 17 -2 13 -5z m1636 -11 c-7 -2 -21 -2 -30 0 -10 3 -4 5 12 5 17 0 24 -2
18 -5z m-530 -20 c-7 -18 -38 -34 -48 -25 -3 4 -12 7 -17 7 -6 0 -13 6 -16 14
-3 10 1 12 16 9 11 -3 25 -2 31 2 19 11 39 8 34 -7z m-1233 -13 c0 -5 -4 -10
-10 -10 -5 0 -10 5 -10 10 0 6 5 10 10 10 6 0 10 -4 10 -10z m1358 -7 c5 -17
-50 -17 -66 -1 -9 9 -16 8 -31 -6 -16 -14 -19 -15 -24 -2 -8 21 -1 24 60 23
35 -1 58 -7 61 -14z m206 -8 c11 0 21 -4 23 -10 2 -5 -8 -10 -22 -10 -14 0
-25 3 -25 8 0 4 -7 7 -15 7 -8 0 -15 5 -15 11 0 5 5 7 10 4 6 -3 10 0 11 7 0
9 2 9 7 -2 4 -8 16 -15 26 -15z m19 18 c-7 -2 -19 -2 -25 0 -7 3 -2 5 12 5 14
0 19 -2 13 -5z m231 -29 c3 -8 -1 -28 -9 -44 -20 -39 -19 -50 5 -50 36 0 72
-24 90 -61 11 -20 18 -38 16 -40 -2 -2 -6 -21 -10 -41 -6 -32 -4 -37 9 -32 9
4 15 1 15 -7 0 -11 3 -11 10 1 9 13 12 13 24 -3 11 -14 15 -15 19 -5 5 11 7
11 15 0 7 -11 11 -10 16 5 7 17 8 17 21 0 11 -15 13 -16 19 -2 9 25 28 18 20
-7 -6 -22 -6 -22 12 -6 31 27 74 28 74 0 0 -16 -10 -17 -104 -15 -58 1 -113 6
-123 10 -16 8 -38 10 -45 3 -9 -6 -49 -11 -88 -10 -25 1 -64 1 -88 2 -38 0
-41 2 -25 13 13 9 22 10 30 3 10 -8 13 -6 13 6 0 9 4 16 8 16 5 0 9 7 9 15 0
11 -4 12 -14 4 -11 -10 -17 -6 -15 12 1 3 -5 6 -13 6 -8 0 -12 -4 -9 -8 2 -4
-4 -10 -13 -13 -11 -3 -9 -4 6 -3 13 1 26 -3 28 -10 3 -8 -5 -10 -24 -7 -22 3
-25 2 -13 -7 17 -12 20 -13 -50 9 -70 22 -156 41 -217 47 -35 4 -63 11 -63 16
0 5 10 7 23 4 119 -26 287 -46 287 -34 0 4 13 10 29 14 27 6 29 9 21 35 -7 26
-4 33 26 59 19 17 34 37 34 46 0 23 24 95 31 95 4 0 10 -7 13 -16z m-1674 -4
c0 -5 -16 -10 -35 -10 -19 0 -35 5 -35 10 0 6 16 10 35 10 19 0 35 -4 35 -10z
m1699 -49 c-13 -28 -29 -42 -29 -24 0 23 25 72 33 64 6 -6 4 -21 -4 -40z
m-807 -3 c7 -16 36 -24 78 -20 26 3 210 -32 210 -40 0 -4 -10 -6 -22 -5 -35 3
-248 -36 -248 -45 0 -4 -7 -8 -15 -8 -8 0 -15 4 -15 10 0 5 27 15 61 22 55 11
59 14 42 26 -17 14 -17 14 2 7 46 -17 55 -17 55 -1 0 9 -4 16 -10 16 -5 0 -10
-4 -10 -10 0 -5 -7 -7 -15 -4 -8 4 -12 10 -9 16 3 5 -10 2 -30 -6 -21 -9 -38
-11 -41 -5 -4 5 -12 6 -18 2 -7 -5 -29 -9 -49 -9 -36 -2 -38 0 -38 28 0 28 2
30 26 24 21 -6 25 -4 21 8 -9 22 16 15 25 -6z m1471 -35 c-7 -2 -19 -2 -25 0
-7 3 -2 5 12 5 14 0 19 -2 13 -5z m-1059 -23 c16 0 27 -3 23 -6 -10 -11 -77
-16 -105 -9 -25 7 -26 8 -7 16 11 4 29 6 40 4 11 -3 33 -5 49 -5z m-1107 -6
c-3 -3 -12 -4 -19 -1 -8 3 -5 6 6 6 11 1 17 -2 13 -5z m979 -17 c8 3 14 0 14
-6 0 -6 -11 -11 -25 -11 -17 0 -25 6 -25 17 0 13 3 14 11 6 6 -6 18 -9 25 -6z
m294 9 c0 -3 -4 -8 -10 -11 -5 -3 -10 -1 -10 4 0 6 5 11 10 11 6 0 10 -2 10
-4z m53 -13 c-7 -2 -21 -2 -30 0 -10 3 -4 5 12 5 17 0 24 -2 18 -5z m357 -53
c5 0 12 5 15 10 6 10 45 15 45 6 0 -2 3 -11 6 -20 4 -12 0 -16 -15 -16 -12 0
-21 -5 -21 -11 0 -7 10 -9 26 -5 16 4 23 3 20 -3 -4 -5 -2 -12 3 -15 5 -3 12
1 15 10 4 10 12 14 22 10 14 -5 15 2 12 44 -2 39 0 50 12 50 11 0 15 -12 15
-48 0 -26 -4 -53 -9 -61 -6 -9 -5 -12 5 -9 8 2 15 21 17 41 4 48 31 51 34 5
l1 -33 4 33 c3 19 10 32 19 32 13 0 19 -25 14 -60 -1 -11 1 -12 10 -3 7 6 11
29 8 52 -2 29 0 41 9 41 9 0 13 -15 13 -44 0 -25 5 -48 11 -52 8 -4 10 9 8 45
-3 34 0 52 9 56 7 2 12 -3 12 -14 0 -22 42 -33 77 -20 18 7 26 3 45 -23 12
-17 17 -28 10 -24 -7 4 -12 1 -12 -8 0 -20 -37 -31 -55 -16 -11 10 -15 10 -15
1 0 -9 -29 -12 -99 -10 -54 1 -103 -1 -108 -4 -6 -4 -20 -4 -33 -2 -12 2 -31
0 -41 -6 -11 -5 -18 -6 -17 -2 4 10 -5 13 -33 13 -13 0 -18 -4 -13 -12 4 -8 3
-10 -2 -5 -5 5 -10 13 -10 18 -1 5 -2 12 -3 15 0 3 -8 -1 -16 -9 -10 -11 -23
-13 -42 -8 -24 6 -28 13 -28 42 0 28 4 35 23 37 15 2 22 9 18 17 -3 8 0 16 7
18 7 2 13 -8 15 -25 2 -15 7 -28 12 -28z m-933 24 c-3 -3 -12 -4 -19 -1 -8 3
-5 6 6 6 11 1 17 -2 13 -5z m81 -11 c-10 -2 -26 -2 -35 0 -10 3 -2 5 17 5 19
0 27 -2 18 -5z m90 -10 c-10 -2 -28 -2 -40 0 -13 2 -5 4 17 4 22 1 32 -1 23
-4z m-833 -13 c-27 -12 -43 -12 -25 0 8 5 22 9 30 9 10 0 8 -3 -5 -9z m898 3
c-7 -2 -19 -2 -25 0 -7 3 -2 5 12 5 14 0 19 -2 13 -5z m604 -45 c-3 -8 -6 -5
-6 6 -1 11 2 17 5 13 3 -3 4 -12 1 -19z m-457 -4 c0 -2 -9 -4 -20 -4 -11 0
-20 4 -20 9 0 5 9 7 20 4 11 -3 20 -7 20 -9z m-55 -29 c55 -8 116 -18 135 -21
18 -2 36 -7 39 -9 9 -9 -84 -4 -124 6 -22 6 -53 13 -70 15 -116 13 -138 18
-120 24 11 4 25 6 30 4 6 -2 55 -10 110 -19z m825 -5 c0 -16 -7 -20 -30 -20
-20 0 -30 5 -30 15 0 15 25 21 33 8 2 -5 2 -2 1 5 -2 6 3 12 11 12 8 0 15 -9
15 -20z m-683 4 c-3 -3 -12 -4 -19 -1 -8 3 -5 6 6 6 11 1 17 -2 13 -5z m751
-19 c-7 -16 -14 -21 -19 -14 -5 8 -8 7 -12 -2 -4 -12 -7 -11 -16 1 -20 28 -12
40 24 40 33 0 34 -1 23 -25z m-393 -15 c-11 -5 -33 -8 -50 -8 -29 1 -29 1 5 8
49 10 69 10 45 0z m-240 -9 c36 -8 34 -9 -30 -10 -49 0 -65 2 -55 9 18 12 32
12 85 1z m355 1 c0 -5 -7 -9 -15 -9 -8 0 -12 4 -9 9 7 10 24 10 24 0z m83 -9
c-13 -2 -35 -2 -50 0 -16 2 -5 4 22 4 28 0 40 -2 28 -4z m-1230 -10 c-7 -2
-21 -2 -30 0 -10 3 -4 5 12 5 17 0 24 -2 18 -5z"/>
<path d="M1842 228 c-7 -7 -12 -18 -12 -26 0 -10 3 -10 16 2 8 9 21 13 27 9 8
-5 8 -8 -1 -11 -17 -5 -15 -32 3 -32 21 0 19 33 -3 53 -14 13 -21 14 -30 5z"/>
<path d="M1903 205 c12 -18 24 -32 26 -29 7 7 -21 52 -35 58 -8 3 -5 -8 9 -29z"/>
<path d="M1830 173 c0 -6 8 -17 18 -24 16 -13 16 -13 2 6 -8 11 -16 22 -17 24
-2 2 -3 0 -3 -6z"/>
<path d="M1878 143 c7 -3 16 -2 19 1 4 3 -2 6 -13 5 -11 0 -14 -3 -6 -6z"/>
<path d="M1898 108 c-19 -19 -13 -24 11 -9 7 5 12 13 10 18 -2 5 -12 1 -21 -9z"/>
<path d="M1835 80 c3 -5 8 -10 11 -10 2 0 4 5 4 10 0 6 -5 10 -11 10 -5 0 -7
-4 -4 -10z"/>
<path d="M1270 250 c0 -5 5 -10 11 -10 5 0 7 5 4 10 -3 6 -8 10 -11 10 -2 0
-4 -4 -4 -10z"/>
<path d="M2045 160 c-3 -5 -1 -10 4 -10 6 0 11 5 11 10 0 6 -2 10 -4 10 -3 0
-8 -4 -11 -10z"/>
<path d="M2120 159 c0 -5 5 -7 10 -4 6 3 10 8 10 11 0 2 -4 4 -10 4 -5 0 -10
-5 -10 -11z"/>
<path d="M2419 168 c-7 -15 -6 -58 2 -58 5 0 9 14 9 30 0 25 -6 39 -11 28z"/>
<path d="M2487 158 c-6 -19 4 -49 14 -42 12 7 12 41 0 48 -5 4 -11 0 -14 -6z"/>
<path d="M2040 130 c0 -5 5 -10 10 -10 6 0 10 5 10 10 0 6 -4 10 -10 10 -5 0
-10 -4 -10 -10z"/>
<path d="M380 1840 c-8 -5 -11 -12 -7 -16 8 -8 104 -12 131 -6 18 5 17 6 -4
14 -14 5 -27 5 -34 -2 -5 -5 -17 -10 -25 -10 -13 1 -12 4 4 17 19 15 14 15
-29 -3 -14 -5 -17 -4 -12 4 9 14 -3 15 -24 2z"/>
<path d="M1696 1835 c10 -8 23 -15 28 -15 6 0 1 7 -10 15 -10 8 -23 15 -28 15
-6 0 -1 -7 10 -15z"/>
<path d="M1555 1805 c-40 -19 -16 -19 26 0 19 8 27 14 19 14 -8 0 -28 -7 -45
-14z"/>
<path d="M2169 1803 c-13 -16 -12 -17 4 -4 9 7 17 15 17 17 0 8 -8 3 -21 -13z"/>
<path d="M1731 1808 c2 -2 18 -14 34 -28 l30 -25 -24 28 c-14 15 -29 27 -34
27 -6 0 -8 -1 -6 -2z"/>
<path d="M1470 1775 c-19 -7 -28 -14 -20 -14 8 0 29 6 45 14 39 17 21 18 -25
0z"/>
<path d="M2186 1775 c-19 -15 -19 -15 2 -15 13 0 22 6 22 15 0 18 0 18 -24 0z"/>
<path d="M580 1766 c14 -9 32 -15 40 -15 13 0 13 1 0 8 -8 5 -26 12 -40 15
l-25 7 25 -15z"/>
<path d="M1830 1726 c0 -2 8 -10 18 -17 15 -13 16 -12 3 4 -13 16 -21 21 -21
13z"/>
<path d="M554 1707 c-10 -5 -21 -11 -23 -13 -2 -2 6 -18 17 -36 12 -20 21 -57
24 -95 4 -55 2 -63 -16 -72 -33 -16 1 -13 41 4 43 18 46 18 37 3 -5 -8 -2 -9
10 -5 10 4 25 7 34 7 14 0 14 2 3 9 -9 6 -11 18 -7 35 4 15 2 26 -4 26 -6 0
-8 10 -4 25 3 14 3 40 0 58 -5 27 -13 35 -49 49 -32 11 -49 13 -63 5z"/>
<path d="M770 1700 c8 -5 22 -9 30 -9 10 0 8 3 -5 9 -27 12 -43 12 -25 0z"/>
<path d="M1245 1700 c-13 -6 -15 -9 -5 -9 8 0 22 4 30 9 18 12 2 12 -25 0z"/>
<path d="M1175 1680 c-8 -13 15 -13 35 0 12 8 11 10 -7 10 -12 0 -25 -4 -28
-10z"/>
<path d="M1910 1655 c13 -14 26 -25 28 -25 3 0 -5 11 -18 25 -13 14 -26 25
-28 25 -3 0 5 -11 18 -25z"/>
<path d="M2023 1668 c4 -10 2 -18 -3 -18 -6 0 -10 -10 -10 -22 0 -21 2 -20 15
6 12 22 13 32 4 40 -9 8 -10 7 -6 -6z"/>
<path d="M990 1650 c0 -6 7 -10 15 -10 8 0 15 2 15 4 0 2 -7 6 -15 10 -8 3
-15 1 -15 -4z"/>
<path d="M1060 1643 c-43 -8 -44 -21 -1 -19 22 0 35 4 29 7 -7 4 -5 9 3 12 16
6 5 6 -31 0z"/>
<path d="M717 1618 c-30 -11 -28 -28 4 -28 29 0 81 -29 73 -41 -4 -8 1 -9 17
-4 45 15 84 34 68 35 -9 0 -42 11 -73 25 -31 14 -58 25 -59 24 -1 0 -14 -5
-30 -11z"/>
<path d="M930 1595 c-19 -7 -28 -14 -20 -14 8 0 29 6 45 14 39 17 21 18 -25 0z"/>
<path d="M1148 1603 c7 -3 16 -2 19 1 4 3 -2 6 -13 5 -11 0 -14 -3 -6 -6z"/>
<path d="M1190 1590 c8 -5 20 -10 25 -10 6 0 3 5 -5 10 -8 5 -19 10 -25 10 -5
0 -3 -5 5 -10z"/>
<path d="M1990 1581 c0 -10 30 -24 37 -17 3 3 2 9 -2 15 -8 13 -35 15 -35 2z"/>
<path d="M732 1560 c0 -14 2 -19 5 -12 2 6 2 18 0 25 -3 6 -5 1 -5 -13z"/>
<path d="M1280 1563 c8 -3 30 -12 48 -19 17 -7 32 -11 32 -8 0 7 -67 34 -82
33 -8 0 -8 -3 2 -6z"/>
<path d="M2016 1531 c-3 -4 1 -17 8 -27 13 -17 14 -17 9 9 -6 29 -9 32 -17 18z"/>
<path d="M710 1520 c-8 -5 -10 -10 -5 -10 6 0 17 5 25 10 8 5 11 10 5 10 -5 0
-17 -5 -25 -10z"/>
<path d="M1542 1500 c0 -19 2 -27 5 -17 2 9 2 25 0 35 -3 9 -5 1 -5 -18z"/>
<path d="M1834 1470 c-5 -30 -15 -54 -21 -53 -16 3 -11 -130 6 -150 18 -22 38
-22 44 1 4 14 5 13 6 -3 2 -34 -19 -48 -41 -28 -17 15 -18 15 -15 -3 8 -53 48
-60 68 -12 15 38 16 117 0 146 -8 15 -8 22 2 25 7 3 4 6 -6 6 -16 1 -17 7 -11
46 4 29 3 45 -4 45 -6 0 -12 8 -14 18 -2 9 -8 -8 -14 -38z m20 -24 c-3 -15 -8
-25 -11 -23 -2 3 -1 17 3 31 3 15 8 25 11 23 2 -3 1 -17 -3 -31z m-21 -81 c-3
-9 -8 -14 -10 -11 -3 3 -2 9 2 15 9 16 15 13 8 -4z"/>
<path d="M1670 1462 c0 -5 7 -15 15 -22 8 -7 15 -9 15 -6 0 4 -7 14 -15 22 -8
9 -15 11 -15 6z"/>
<path d="M1535 1450 c3 -5 8 -10 11 -10 2 0 4 5 4 10 0 6 -5 10 -11 10 -5 0
-7 -4 -4 -10z"/>
<path d="M1572 1425 c0 -16 2 -22 5 -12 2 9 2 23 0 30 -3 6 -5 -1 -5 -18z"/>
<path d="M1748 1428 c5 -5 16 -8 23 -6 8 3 3 7 -10 11 -17 4 -21 3 -13 -5z"/>
<path d="M1511 1414 c0 -11 3 -14 6 -6 3 7 2 16 -1 19 -3 4 -6 -2 -5 -13z"/>
<path d="M1621 1414 c0 -11 3 -14 6 -6 3 7 2 16 -1 19 -3 4 -6 -2 -5 -13z"/>
<path d="M1671 1414 c0 -11 3 -14 6 -6 3 7 2 16 -1 19 -3 4 -6 -2 -5 -13z"/>
<path d="M0 1405 c0 -8 2 -15 4 -15 2 0 6 7 10 15 3 8 1 15 -4 15 -6 0 -10 -7
-10 -15z"/>
<path d="M1694 1405 c-3 -8 -4 -20 -1 -27 3 -7 6 -3 6 10 1 15 5 21 13 16 7
-4 8 -3 4 4 -10 16 -15 15 -22 -3z"/>
<path d="M1435 1400 c-2 -4 5 -7 17 -6 12 0 23 -4 25 -11 3 -8 -3 -11 -16 -8
-18 3 -20 1 -11 -16 12 -22 22 -26 14 -4 -4 10 0 13 16 10 20 -4 21 -3 8 17
-15 22 -44 32 -53 18z"/>
<path d="M1410 1391 c0 -6 -10 -8 -21 -6 -12 3 -19 1 -15 -2 13 -14 54 -10 49
4 -6 15 -13 17 -13 4z"/>
<path d="M1572 1370 c0 -14 2 -19 5 -12 2 6 2 18 0 25 -3 6 -5 1 -5 -13z"/>
<path d="M41 1364 c0 -11 3 -14 6 -6 3 7 2 16 -1 19 -3 4 -6 -2 -5 -13z"/>
<path d="M1938 1373 c7 -3 16 -2 19 1 4 3 -2 6 -13 5 -11 0 -14 -3 -6 -6z"/>
<path d="M62 1350 c0 -14 2 -19 5 -12 2 6 2 18 0 25 -3 6 -5 1 -5 -13z"/>
<path d="M1266 1352 c-3 -5 1 -9 9 -9 8 0 12 4 9 9 -3 4 -7 8 -9 8 -2 0 -6 -4
-9 -8z"/>
<path d="M1316 1348 c3 -5 10 -6 15 -3 13 9 11 12 -6 12 -8 0 -12 -4 -9 -9z"/>
<path d="M1385 1350 c-5 -8 42 -7 49 1 3 3 -6 5 -20 5 -14 0 -27 -3 -29 -6z"/>
<path d="M1484 1342 c4 -3 14 -7 22 -8 9 -1 13 0 10 4 -4 3 -14 7 -22 8 -9 1
-13 0 -10 -4z"/>
<path d="M1673 1300 c0 -30 2 -43 4 -27 2 15 2 39 0 55 -2 15 -4 2 -4 -28z"/>
<path d="M1223 1325 c0 -8 4 -12 9 -9 5 3 6 10 3 15 -9 13 -12 11 -12 -6z"/>
<path d="M1336 1332 c-3 -5 1 -9 9 -9 8 0 12 4 9 9 -3 4 -7 8 -9 8 -2 0 -6 -4
-9 -8z"/>
<path d="M1376 1319 c4 -8 30 -6 38 2 3 3 -5 5 -19 5 -13 0 -22 -3 -19 -7z"/>
<path d="M1571 1314 c0 -11 3 -14 6 -6 3 7 2 16 -1 19 -3 4 -6 -2 -5 -13z"/>
<path d="M1185 1301 c-3 -5 -2 -12 3 -15 5 -3 9 1 9 9 0 17 -3 19 -12 6z"/>
<path d="M1540 1294 c0 -5 12 -22 26 -39 l26 -30 -23 35 c-29 45 -29 45 -29
34z"/>
<path d="M1 1274 c0 -11 3 -14 6 -6 3 7 2 16 -1 19 -3 4 -6 -2 -5 -13z"/>
<path d="M1502 1253 c-5 -10 -7 -24 -4 -32 3 -9 0 -11 -8 -6 -8 5 -11 4 -7 -3
8 -12 32 -10 44 3 4 4 2 5 -4 1 -9 -5 -12 1 -9 23 4 35 1 39 -12 14z"/>
<path d="M1652 1200 c0 -14 2 -19 5 -12 2 6 2 18 0 25 -3 6 -5 1 -5 -13z"/>
<path d="M1702 1190 c0 -14 2 -19 5 -12 2 6 2 18 0 25 -3 6 -5 1 -5 -13z"/>
<path d="M1466 1192 c-3 -5 1 -9 9 -9 8 0 12 4 9 9 -3 4 -7 8 -9 8 -2 0 -6 -4
-9 -8z"/>
<path d="M2386 1191 c-4 -7 -5 -15 -2 -18 9 -9 19 4 14 18 -4 11 -6 11 -12 0z"/>
<path d="M1508 1172 c4 -11 1 -13 -9 -7 -8 5 -11 4 -6 0 14 -16 33 -13 33 5 0
9 -6 17 -12 17 -7 0 -10 -7 -6 -15z"/>
<path d="M1557 1162 c5 -11 3 -13 -8 -7 -8 5 -11 4 -6 0 14 -16 36 -14 30 3
-5 11 -3 13 8 7 8 -5 11 -4 6 0 -14 16 -36 14 -30 -3z"/>
<path d="M1458 1152 c3 -10 1 -13 -6 -8 -6 3 -15 -2 -21 -12 -7 -14 -6 -19 4
-19 7 0 11 6 9 12 -3 8 5 11 22 11 15 -1 29 -7 32 -14 2 -7 -5 -10 -19 -7 -12
2 -19 1 -15 -2 4 -4 18 -8 31 -9 17 0 22 3 17 14 -4 11 -1 13 8 7 9 -5 11 -4
6 4 -4 6 -11 9 -16 6 -5 -3 -11 -1 -15 5 -4 6 -11 7 -17 4 -7 -5 -9 -2 -6 8 4
8 1 15 -7 15 -8 0 -11 -7 -7 -15z"/>
<path d="M1920 1151 c0 -9 30 -24 36 -18 2 1 -6 8 -16 15 -11 7 -20 8 -20 3z"/>
<path d="M798 1133 c7 -3 16 -2 19 1 4 3 -2 6 -13 5 -11 0 -14 -3 -6 -6z"/>
<path d="M2005 1092 c1 -9 0 -21 -4 -27 -3 -5 -7 -19 -8 -30 -3 -16 -1 -17 7
-5 8 12 10 11 10 -7 0 -14 6 -23 16 -23 11 0 13 -6 9 -19 -3 -11 -1 -22 5 -26
5 -3 10 0 10 8 0 8 2 30 5 48 4 27 3 30 -4 14 -10 -20 -10 -19 -17 3 -3 12
-10 22 -15 22 -4 0 -7 9 -6 20 2 28 27 25 28 -2 l0 -23 9 23 c5 12 15 22 21
22 26 0 -2 12 -34 15 -28 3 -35 1 -32 -13z"/>
<path d="M2448 1092 c-10 -2 -18 -10 -18 -19 0 -10 6 -14 20 -10 11 3 20 0 20
-6 0 -6 2 -8 5 -5 12 11 -11 44 -27 40z"/>
<path d="M825 1080 c27 -12 43 -12 25 0 -8 5 -22 9 -30 9 -10 0 -8 -3 5 -9z"/>
<path d="M1950 1061 c0 -21 5 -31 15 -31 8 0 15 8 15 19 0 10 -7 24 -15 31
-13 11 -15 8 -15 -19z"/>
<path d="M828 1053 c6 -2 18 -2 25 0 6 3 1 5 -13 5 -14 0 -19 -2 -12 -5z"/>
<path d="M6 1035 c-3 -8 -1 -15 4 -15 6 0 10 7 10 15 0 8 -2 15 -4 15 -2 0 -6
-7 -10 -15z"/>
<path d="M808 1033 c6 -2 18 -2 25 0 6 3 1 5 -13 5 -14 0 -19 -2 -12 -5z"/>
<path d="M668 1013 c6 -2 18 -2 25 0 6 3 1 5 -13 5 -14 0 -19 -2 -12 -5z"/>
<path d="M788 1013 c7 -3 16 -2 19 1 4 3 -2 6 -13 5 -11 0 -14 -3 -6 -6z"/>
<path d="M1955 1009 c-4 -6 -5 -12 -2 -15 2 -3 7 2 10 11 7 17 1 20 -8 4z"/>
<path d="M4 999 c-3 -6 -1 -16 5 -22 8 -8 11 -5 11 11 0 24 -5 28 -16 11z"/>
<path d="M650 990 c8 -5 22 -9 30 -9 10 0 8 3 -5 9 -27 12 -43 12 -25 0z"/>
<path d="M550 980 c0 -5 5 -10 11 -10 5 0 7 5 4 10 -3 6 -8 10 -11 10 -2 0 -4
-4 -4 -10z"/>
<path d="M428 953 c7 -3 16 -2 19 1 4 3 -2 6 -13 5 -11 0 -14 -3 -6 -6z"/>
<path d="M353 943 c9 -2 25 -2 35 0 9 3 1 5 -18 5 -19 0 -27 -2 -17 -5z"/>
<path d="M288 933 c6 -2 18 -2 25 0 6 3 1 5 -13 5 -14 0 -19 -2 -12 -5z"/>
<path d="M134 919 c-3 -5 6 -9 20 -9 31 0 34 6 6 13 -11 3 -23 1 -26 -4z"/>
<path d="M208 923 c6 -2 18 -2 25 0 6 3 1 5 -13 5 -14 0 -19 -2 -12 -5z"/>
<path d="M53 903 c9 -2 23 -2 30 0 6 3 -1 5 -18 5 -16 0 -22 -2 -12 -5z"/>
<path d="M60 735 c-7 -8 -10 -22 -6 -30 4 -13 9 -13 25 -3 11 7 17 16 14 21
-3 4 -11 0 -19 -10 -14 -17 -15 -17 -12 2 4 26 36 31 54 8 14 -17 14 -16 4 5
-12 25 -42 29 -60 7z"/>
<path d="M2600 723 c0 -23 -2 -25 -11 -13 -9 12 -10 12 -7 1 8 -27 26 -22 30
9 3 16 1 30 -4 30 -4 0 -8 -12 -8 -27z"/>
<path d="M63 683 c-40 -8 -25 -23 23 -23 28 0 43 4 39 10 -4 6 -11 8 -16 5 -5
-4 -9 -1 -9 4 0 6 -3 10 -7 10 -5 -1 -18 -4 -30 -6z"/>
</g>
</svg>
